<?xml version="1.0" encoding="UTF-8"?>
<!DOCTYPE svg PUBLIC "-//W3C//DTD SVG 1.1//EN" "http://www.w3.org/Graphics/SVG/1.1/DTD/svg11.dtd">
<!-- Creator: CorelDRAW -->
<svg xmlns="http://www.w3.org/2000/svg" xml:space="preserve" width="147.753mm" height="147.753mm" version="1.1" style="shape-rendering:geometricPrecision; text-rendering:geometricPrecision; image-rendering:optimizeQuality; fill-rule:evenodd; clip-rule:evenodd"
viewBox="0 0 8820.82 8820.82"
 xmlns:xlink="http://www.w3.org/1999/xlink"
 xmlns:xodm="http://www.corel.com/coreldraw/odm/2003">
 <defs>
  <style type="text/css">
   <![CDATA[
    .fil2 {fill:#FEFEFE}
    .fil1 {fill:black}
    .fil0 {fill:#881DF2}
    .fil3 {fill:#FEFEFE;fill-rule:nonzero}
    .fil4 {fill:#881DF2;fill-rule:nonzero}
   ]]>
  </style>
 </defs>
 <g id="Слой_x0020_1">
  <metadata id="CorelCorpID_0Corel-Layer"/>
  <g id="_2658634694528">
   <circle class="fil0" cx="4410.41" cy="4410.41" r="4410.41"/>
   <circle class="fil1" cx="4410.41" cy="4410.41" r="4190.85"/>
   <g>
    <polygon class="fil0" points="3987.74,3815.27 4410.41,3392.61 4833.07,3815.27 5547.35,3815.27 4767.54,3035.47 5039.5,2763.51 6264.07,3988.08 6978.35,3988.08 5039.5,2049.24 4682.36,2406.38 4410.41,2678.33 4138.46,2406.38 3781.32,2049.24 1842.47,3988.08 2556.75,3988.08 3781.32,2763.51 4053.27,3035.47 3273.47,3815.27 "/>
    <polygon class="fil2" points="4053.72,1776.84 4410.41,2133.52 4767.09,1776.84 4410.41,1420.15 "/>
    <path class="fil3" d="M2940.08 4261.15l-247.53 0 -301.28 463.94 -301.28 -463.94 -247.53 0 0 990.12 261.68 0 0 -527.59 212.17 326.74 149.93 0 212.17 -325.32 0 526.18 261.68 0 0 -990.12zm1067.91 0l-261.67 0 0 598.31c0,132.96 -72.14,179.64 -183.88,179.64 -111.74,0 -183.88,-46.68 -183.88,-179.64l0 -598.31 -261.67 0 0 612.46c0,298.45 226.31,398.88 445.55,398.88 219.24,0 445.55,-100.43 445.55,-398.88l0 -612.46zm176.81 990.12l261.68 0 0 -322.5 113.16 0 236.21 322.5 295.62 0 -272.99 -359.27c108.91,-43.85 189.54,-132.96 189.54,-297.04 0,-261.67 -205.1,-333.81 -405.95,-333.81l-417.27 0 0 990.12zm261.68 -534.67l0 -229.14 166.9 0c74.97,0 125.89,38.19 125.89,114.57 0,76.38 -50.92,114.57 -125.89,114.57l-166.9 0zm652.07 534.67l268.75 0 56.58 -155.59 410.19 0 56.58 155.59 268.75 0 -388.97 -990.12 -282.89 0 -388.97 990.12zm403.12 -367.76l101.84 -285.72c8.49,-24.05 16.98,-48.09 25.46,-100.43 8.49,52.34 16.97,76.38 25.46,100.43l101.84 285.72 -254.6 0zm693.08 -352.19c0,353.61 514.86,305.52 514.86,448.38 0,49.5 -43.85,66.48 -147.11,66.48 -113.16,0 -243.28,-31.12 -360.68,-111.74l0 247.53c104.67,57.99 237.63,90.53 380.49,90.53 216.41,0 396.04,-67.9 396.04,-302.7 0,-350.78 -514.86,-311.18 -514.86,-439.89 0,-36.78 29.71,-62.24 125.89,-63.65 114.57,-1.41 226.32,29.7 311.18,93.35l0 -240.46c-86.28,-49.5 -209.34,-79.2 -332.4,-79.2 -203.68,0 -373.42,93.35 -373.42,291.38z"/>
    <path class="fil4" d="M2817.22 5584.29l-144.53 0 0 320.15 139.04 0c60.82,0 130.34,-17.84 130.34,-90.56 0,-44.36 -26.07,-69.06 -60.37,-79.12 30.65,-10.98 47.57,-34.3 47.57,-69.52 0,-55.34 -42.08,-80.95 -112.05,-80.95zm27.44 96.05c0,18.29 -12.81,29.73 -35.22,29.73l-52.14 -0.46 0 -59 52.14 0c22.41,0 35.22,11.43 35.22,29.72zm12.35 124.4c0,25.15 -16.92,33.38 -42.54,33.38l-57.62 0 0 -66.77 57.62 0c25.61,0 42.54,8.23 42.54,33.39zm128.52 99.7l84.61 0 0 -104.28 36.59 0 76.38 104.28 95.59 0 -88.27 -116.17c35.22,-14.18 61.29,-42.99 61.29,-96.05 0,-84.61 -66.31,-107.94 -131.26,-107.94l-134.92 0 0 320.15zm84.61 -172.88l0 -74.09 53.97 0c24.24,0 40.7,12.35 40.7,37.04 0,24.7 -16.46,37.04 -40.7,37.04l-53.97 0zm210.84 172.88l86.9 0 18.29 -50.32 132.64 0 18.29 50.32 86.9 0 -125.78 -320.15 -91.47 0 -125.77 320.15zm130.35 -118.92l32.92 -92.39c2.75,-7.77 5.49,-15.55 8.23,-32.47 2.75,16.92 5.49,24.7 8.23,32.47l32.93 92.39 -82.32 0zm243.31 118.92l84.61 0 0 -130.81c0,-17.38 -0.46,-37.5 -1.83,-52.59l125.32 183.4 80.03 0 0 -320.15 -84.61 0 0 130.81c0,17.83 0.45,37.96 1.83,53.05l-125.32 -183.86 -80.03 0 0 320.15zm476.11 -320.15l-127.6 0 0 320.15 127.6 0c114.34,0 167.39,-66.77 167.39,-160.08 0,-93.3 -53.06,-160.07 -167.39,-160.07zm80.49 160.07c0,59.91 -29.73,86.9 -80.49,86.9l-42.99 0 0 -173.79 42.99 0c50.76,0 80.49,26.98 80.49,86.89zm215.87 -72.71c0,114.34 166.48,98.79 166.48,144.98 0,16.01 -14.18,21.49 -47.56,21.49 -36.59,0 -78.67,-10.06 -116.62,-36.13l0 80.04c33.84,18.75 76.83,29.27 123.02,29.27 69.98,0 128.06,-21.96 128.06,-97.88 0,-113.42 -166.48,-100.62 -166.48,-142.24 0,-11.89 9.61,-20.12 40.7,-20.58 37.05,-0.46 73.18,9.61 100.62,30.18l0 -77.75c-27.9,-16.01 -67.69,-25.61 -107.48,-25.61 -65.86,0 -120.74,30.18 -120.74,94.22zm530.54 -87.36l-265.26 0 0 75.47 90.55 0 0 244.69 84.61 0 0 -244.69 90.1 0 0 -75.47zm321.06 0l-84.61 0 0 193.46c0,42.99 -23.32,58.08 -59.46,58.08 -36.13,0 -59.46,-15.09 -59.46,-58.08l0 -193.46 -84.61 0 0 198.04c0,96.5 73.17,128.98 144.06,128.98 70.89,0 144.07,-32.47 144.07,-128.98l0 -198.04zm184.77 0l-127.6 0 0 320.15 127.6 0c114.34,0 167.39,-66.77 167.39,-160.08 0,-93.3 -53.06,-160.07 -167.39,-160.07zm80.49 160.07c0,59.91 -29.72,86.9 -80.49,86.9l-42.99 0 0 -173.79 42.99 0c50.77,0 80.49,26.98 80.49,86.89zm216.79 -160.07l-84.61 0 0 320.15 84.61 0 0 -320.15zm44.36 160.07c0,89.19 57.17,166.94 171.51,166.94 114.34,0 171.5,-77.75 171.5,-166.94 0,-89.18 -57.16,-166.93 -171.5,-166.93 -114.34,0 -171.51,77.75 -171.51,166.93zm256.12 0c0,51.23 -29.27,89.19 -84.61,89.19 -55.34,0 -84.61,-37.96 -84.61,-89.19 0,-51.22 29.27,-89.18 84.61,-89.18 55.34,0 84.61,37.96 84.61,89.18z"/>
    <path class="fil3" d="M1951.95 6245.72l-46.77 0 0 -28.14 117.28 0 0 -55.94 -179.99 0 0 237.29 109.48 0c48.13,0 90.5,-17.29 90.5,-76.61 0,-59.32 -42.37,-76.6 -90.5,-76.6zm-0.69 98.98l-46.09 0 0 -44.76 46.09 0c14.58,0 26.78,4.06 26.78,22.38 0,18.3 -12.2,22.38 -26.78,22.38zm215.59 -183.06l-93.89 0 0 237.29 62.71 0 0 -74.57 31.18 0c58.65,-0.35 103.39,-18.98 103.39,-81.37 0,-62.37 -44.74,-81.35 -103.39,-81.35zm38.98 81.35c0,21.37 -16.95,27.12 -35.93,27.12l-34.23 0 0 -54.23 34.23 0c18.98,0 35.93,5.76 35.93,27.1zm265.07 -81.35l-170.84 0 0 237.29 172.88 0 0 -54.23 -110.17 0 0 -38.66 97.96 0 0 -53.89 -97.96 0 0 -36.27 108.13 0 0 -54.25zm251.87 0l-62.71 0 0 90.85 -88.13 0 0 -90.85 -62.71 0 0 237.29 62.71 0 0 -90.5 88.13 0 0 90.5 62.71 0 0 -237.29zm29.47 286.45l54.24 0 0 -49.16 155.94 0 0 49.16 54.23 0 0 -103.38 -30.52 0 0 -183.06 -169.49 0c0,62.71 -6.76,128.81 -37.28,183.06l-27.12 0 0 103.38zm122.04 -230.5l49.14 0 0 127.12 -77.96 0c18.64,-34.58 25.43,-80.68 28.82,-127.12zm368.81 75.92l-128.81 0 0 47.46 128.81 0 0 -47.46zm204.39 -131.87l-93.89 0 0 237.29 62.71 0 0 -74.57 31.18 0c58.65,-0.35 103.39,-18.98 103.39,-81.37 0,-62.37 -44.74,-81.35 -103.39,-81.35zm38.98 81.35c0,21.37 -16.95,27.12 -35.93,27.12l-34.23 0 0 -54.23 34.23 0c18.98,0 35.93,5.76 35.93,27.1zm265.07 -81.35l-170.84 0 0 237.29 172.88 0 0 -54.23 -110.17 0 0 -38.66 97.96 0 0 -53.89 -97.96 0 0 -36.27 108.13 0 0 -54.25zm38.32 237.29l62.71 0 0 -91.53 29.49 0 57.62 91.53 69.5 0 -77.96 -121.69 74.57 -115.6 -69.5 0 -53.89 89.84 -29.83 0 0 -89.84 -62.71 0 0 237.29zm453.87 -237.29l-171.18 0c-5.41,71.86 -4.75,178.32 -43.04,182.38 -6.45,0.69 -11.87,0 -16.28,-1.36l0 54.57c10.52,3.39 20.34,4.75 29.16,4.75 68.12,-0.34 80,-87.11 87.45,-184.4l51.18 0 0 181.34 62.71 0 0 -237.29zm22.72 237.29l64.4 0 13.55 -37.28 98.3 0 13.57 37.28 64.4 0 -93.23 -237.29 -67.8 0 -93.21 237.29zm96.6 -88.13l24.42 -68.47c2.02,-5.77 4.06,-11.53 6.1,-24.07 2.02,12.54 4.06,18.3 6.1,24.07l24.4 68.47 -61.01 0zm443.39 -149.15l-59.32 0 -72.2 111.19 -72.2 -111.19 -59.32 0 0 237.29 62.71 0 0 -126.43 50.83 78.3 35.93 0 50.85 -77.97 0 126.1 62.71 0 0 -237.29zm22.72 237.29l64.4 0 13.55 -37.28 98.3 0 13.57 37.28 64.4 0 -93.23 -237.29 -67.8 0 -93.21 237.29zm96.6 -88.13l24.42 -68.47c2.02,-5.77 4.06,-11.53 6.1,-24.07 2.02,12.54 4.07,18.3 6.1,24.07l24.4 68.47 -61.01 0zm374.93 -17.29l-128.81 0 0 47.46 128.81 0 0 -47.46zm110.49 105.42l62.71 0 0 -91.53 29.49 0 57.62 91.53 69.5 0 -77.96 -121.69 74.57 -115.6 -69.5 0 -53.89 89.84 -29.83 0 0 -89.84 -62.71 0 0 237.29zm333.22 -237.29l-93.9 0 0 237.29 62.71 0 0 -74.57 31.18 0c58.65,-0.35 103.39,-18.98 103.39,-81.37 0,-62.37 -44.74,-81.35 -103.39,-81.35zm38.98 81.35c0,21.37 -16.94,27.12 -35.93,27.12l-34.23 0 0 -54.23 34.23 0c18.98,0 35.93,5.76 35.93,27.1zm265.08 -81.35l-170.84 0 0 237.29 172.88 0 0 -54.23 -110.17 0 0 -38.66 97.95 0 0 -53.89 -97.95 0 0 -36.27 108.13 0 0 -54.25zm16.28 237.29l64.4 0 13.55 -37.28 98.3 0 13.58 37.28 64.4 0 -93.23 -237.29 -67.8 0 -93.21 237.29zm96.6 -88.13l24.42 -68.47c2.02,-5.77 4.06,-11.53 6.1,-24.07 2.02,12.54 4.07,18.3 6.1,24.07l24.4 68.47 -61.01 0zm331.53 -149.15l-196.62 0 0 55.94 67.11 0 0 181.34 62.71 0 0 -181.34 66.79 0 0 -55.94zm177.63 237.29l62.71 0 0 -237.29 -59.34 0 -92.86 136.27c1.01,-11.19 1.36,-26.09 1.36,-39.32l0 -96.95 -62.71 0 0 237.29 59.31 0 92.89 -135.92c-1.03,11.18 -1.36,26.09 -1.36,38.98l0 96.94zm214.55 -237.29l-107.1 0 0 237.29 103.04 0c45.08,0 96.62,-13.23 96.62,-67.11 0,-32.88 -19.32,-51.19 -44.75,-58.65 22.72,-8.14 35.26,-25.43 35.26,-51.52 0,-41.02 -31.2,-60 -83.07,-60zm20.36 71.19c0,13.55 -9.49,22.04 -26.11,22.04l-38.64 -0.34 0 -43.73 38.64 0c16.62,0 26.11,8.47 26.11,22.04zm9.15 92.2c0,18.64 -12.54,24.74 -31.52,24.74l-42.72 0 0 -49.48 42.72 0c18.98,0 31.52,6.1 31.52,24.74z"/>
   </g>
  </g>
 </g>
</svg>
