<?xml version="1.0" encoding="UTF-8"?>
<!DOCTYPE svg PUBLIC "-//W3C//DTD SVG 1.1//EN" "http://www.w3.org/Graphics/SVG/1.1/DTD/svg11.dtd">
<!-- Creator: CorelDRAW -->
<svg xmlns="http://www.w3.org/2000/svg" xml:space="preserve" width="86.0285mm" height="84.2202mm" version="1.1" style="shape-rendering:geometricPrecision; text-rendering:geometricPrecision; image-rendering:optimizeQuality; fill-rule:evenodd; clip-rule:evenodd"
viewBox="0 0 3609.24 3533.37"
 xmlns:xlink="http://www.w3.org/1999/xlink"
 xmlns:xodm="http://www.corel.com/coreldraw/odm/2003">
 <defs>
  <style type="text/css">
   <![CDATA[
    .fil1 {fill:#FEFEFE}
    .fil0 {fill:#881DF2}
    .fil2 {fill:#FEFEFE;fill-rule:nonzero}
    .fil3 {fill:#881DF2;fill-rule:nonzero}
   ]]>
  </style>
 </defs>
 <g id="Слой_x0020_1">
  <metadata id="CorelCorpID_0Corel-Layer"/>
  <g id="_2662415143824">
   <polygon class="fil0" points="1507.6,1683.17 1804.62,1386.14 2101.65,1683.17 2603.61,1683.17 2055.6,1135.17 2246.72,944.05 3107.28,1804.61 3609.23,1804.61 2246.72,442.09 1995.74,693.07 1804.62,884.18 1613.51,693.07 1362.53,442.09 0.01,1804.61 501.97,1804.61 1362.53,944.05 1553.64,1135.16 1005.64,1683.17 "/>
   <polygon class="fil1" points="1553.96,250.66 1804.62,501.32 2055.28,250.66 1804.62,0 "/>
   <path class="fil2" d="M771.35 1996.51l-173.95 0 -211.72 326.03 -211.72 -326.03 -173.95 0 0 695.8 183.89 0 0 -370.76 149.1 229.61 105.36 0 149.1 -228.62 0 369.77 183.89 0 0 -695.8zm750.47 0l-183.89 0 0 420.46c0,93.44 -50.7,126.24 -129.22,126.24 -78.53,0 -129.22,-32.8 -129.22,-126.24l0 -420.46 -183.89 0 0 430.4c0,209.74 159.04,280.31 313.11,280.31 154.07,0 313.11,-70.57 313.11,-280.31l0 -430.4zm124.25 695.8l183.89 0 0 -226.64 79.52 0 166 226.64 207.75 0 -191.84 -252.48c76.54,-30.82 133.2,-93.44 133.2,-208.74 0,-183.89 -144.13,-234.58 -285.28,-234.58l-293.23 0 0 695.8zm183.89 -375.74l0 -161.03 117.29 0c52.69,0 88.47,26.84 88.47,80.51 0,53.68 -35.78,80.51 -88.47,80.51l-117.29 0zm458.24 375.74l188.86 0 39.76 -109.34 288.26 0 39.76 109.34 188.86 0 -273.35 -695.8 -198.8 0 -273.35 695.8zm283.29 -258.44l71.57 -200.79c5.97,-16.9 11.93,-33.79 17.89,-70.57 5.97,36.78 11.93,53.68 17.89,70.57l71.57 200.79 -178.92 0zm487.06 -247.5c0,248.5 361.82,214.7 361.82,315.1 0,34.79 -30.82,46.72 -103.38,46.72 -79.52,0 -170.97,-21.87 -253.47,-78.53l0 173.95c73.56,40.75 166.99,63.62 267.39,63.62 152.08,0 278.32,-47.71 278.32,-212.72 0,-246.51 -361.82,-218.68 -361.82,-309.13 0,-25.84 20.88,-43.74 88.47,-44.73 80.51,-0.99 159.04,20.87 218.68,65.6l0 -168.98c-60.63,-34.79 -147.11,-55.66 -233.59,-55.66 -143.14,0 -262.42,65.6 -262.42,204.76z"/>
   <path class="fil3" d="M685.01 2926.35l-101.57 0 0 224.99 97.71 0c42.74,0 91.6,-12.54 91.6,-63.64 0,-31.18 -18.32,-48.53 -42.43,-55.6 21.54,-7.72 33.43,-24.11 33.43,-48.86 0,-38.89 -29.57,-56.89 -78.74,-56.89zm19.28 67.5c0,12.85 -9,20.89 -24.75,20.89l-36.64 -0.32 0 -41.46 36.64 0c15.75,0 24.75,8.03 24.75,20.89zm8.68 87.42c0,17.68 -11.89,23.46 -29.89,23.46l-40.49 0 0 -46.93 40.49 0c18,0 29.89,5.79 29.89,23.46zm90.31 70.07l59.46 0 0 -73.28 25.71 0 53.68 73.28 67.17 0 -62.03 -81.64c24.75,-9.96 43.07,-30.21 43.07,-67.5 0,-59.46 -46.6,-75.85 -92.24,-75.85l-94.81 0 0 224.99zm59.46 -121.49l0 -52.06 37.93 0c17.04,0 28.6,8.68 28.6,26.03 0,17.36 -11.57,26.03 -28.6,26.03l-37.93 0zm148.17 121.49l61.07 0 12.85 -35.36 93.21 0 12.85 35.36 61.07 0 -88.39 -224.99 -64.28 0 -88.38 224.99zm91.6 -83.57l23.14 -64.92c1.93,-5.46 3.86,-10.92 5.79,-22.82 1.93,11.89 3.86,17.36 5.79,22.82l23.14 64.92 -57.85 0zm170.98 83.57l59.46 0 0 -91.93c0,-12.21 -0.32,-26.36 -1.29,-36.96l88.07 128.88 56.24 0 0 -224.99 -59.46 0 0 91.93c0,12.53 0.32,26.67 1.28,37.28l-88.07 -129.21 -56.24 0 0 224.99zm334.58 -224.99l-89.67 0 0 224.99 89.67 0c80.35,0 117.63,-46.93 117.63,-112.5 0,-65.57 -37.28,-112.49 -117.63,-112.49zm56.57 112.49c0,42.11 -20.89,61.07 -56.57,61.07l-30.21 0 0 -122.13 30.21 0c35.67,0 56.57,18.96 56.57,61.06zm151.7 -51.1c0,80.35 116.99,69.42 116.99,101.89 0,11.25 -9.96,15.1 -33.42,15.1 -25.71,0 -55.28,-7.07 -81.96,-25.39l0 56.25c23.78,13.18 53.99,20.57 86.45,20.57 49.18,0 90,-15.43 90,-68.78 0,-79.71 -116.99,-70.71 -116.99,-99.96 0,-8.36 6.75,-14.14 28.6,-14.46 26.04,-0.32 51.43,6.75 70.71,21.21l0 -54.64c-19.61,-11.25 -47.57,-18 -75.53,-18 -46.28,0 -84.85,21.21 -84.85,66.21zm372.83 -61.39l-186.41 0 0 53.03 63.64 0 0 171.95 59.46 0 0 -171.95 63.32 0 0 -53.03zm225.62 0l-59.46 0 0 135.96c0,30.21 -16.39,40.82 -41.78,40.82 -25.39,0 -41.78,-10.61 -41.78,-40.82l0 -135.96 -59.46 0 0 139.17c0,67.82 51.42,90.64 101.24,90.64 49.82,0 101.24,-22.82 101.24,-90.64l0 -139.17zm129.85 0l-89.67 0 0 224.99 89.67 0c80.35,0 117.63,-46.93 117.63,-112.5 0,-65.57 -37.28,-112.49 -117.63,-112.49zm56.57 112.49c0,42.11 -20.89,61.07 -56.57,61.07l-30.21 0 0 -122.13 30.21 0c35.68,0 56.57,18.96 56.57,61.06zm152.35 -112.49l-59.46 0 0 224.99 59.46 0 0 -224.99zm31.18 112.49c0,62.68 40.18,117.32 120.53,117.32 80.35,0 120.52,-54.64 120.52,-117.32 0,-62.67 -40.17,-117.31 -120.52,-117.31 -80.35,0 -120.53,54.64 -120.53,117.31zm179.99 0c0,36 -20.57,62.68 -59.46,62.68 -38.89,0 -59.46,-26.67 -59.46,-62.68 0,-36 20.57,-62.67 59.46,-62.67 38.89,0 59.46,26.67 59.46,62.67z"/>
   <path class="fil2" d="M76.94 3391.16l-32.87 0 0 -19.77 82.42 0 0 -39.32 -126.49 0 0 166.75 76.94 0c33.82,0 63.6,-12.15 63.6,-53.84 0,-41.69 -29.77,-53.83 -63.6,-53.83zm-0.48 69.56l-32.39 0 0 -31.45 32.39 0c10.25,0 18.82,2.85 18.82,15.72 0,12.86 -8.58,15.73 -18.82,15.73zm151.51 -128.65l-65.98 0 0 166.75 44.07 0 0 -52.4 21.91 0c41.22,-0.24 72.66,-13.34 72.66,-57.18 0,-43.83 -31.44,-57.17 -72.66,-57.17zm27.4 57.17c0,15.02 -11.91,19.06 -25.25,19.06l-24.06 0 0 -38.11 24.06 0c13.34,0 25.25,4.04 25.25,19.05zm186.28 -57.17l-120.06 0 0 166.75 121.49 0 0 -38.11 -77.42 0 0 -27.17 68.84 0 0 -37.87 -68.84 0 0 -25.49 75.99 0 0 -38.12zm177 0l-44.07 0 0 63.84 -61.94 0 0 -63.84 -44.07 0 0 166.75 44.07 0 0 -63.6 61.94 0 0 63.6 44.07 0 0 -166.75zm20.71 201.3l38.12 0 0 -34.54 109.58 0 0 34.54 38.11 0 0 -72.65 -21.45 0 0 -128.65 -119.11 0c0,44.07 -4.75,90.52 -26.2,128.65l-19.06 0 0 72.65zm85.77 -161.98l34.53 0 0 89.33 -54.78 0c13.1,-24.3 17.87,-56.7 20.25,-89.33zm259.18 53.35l-90.52 0 0 33.35 90.52 0 0 -33.35zm143.63 -92.67l-65.98 0 0 166.75 44.07 0 0 -52.4 21.91 0c41.22,-0.24 72.66,-13.34 72.66,-57.18 0,-43.83 -31.44,-57.17 -72.66,-57.17zm27.4 57.17c0,15.02 -11.91,19.06 -25.25,19.06l-24.06 0 0 -38.11 24.06 0c13.34,0 25.25,4.04 25.25,19.05zm186.28 -57.17l-120.06 0 0 166.75 121.49 0 0 -38.11 -77.42 0 0 -27.17 68.84 0 0 -37.87 -68.84 0 0 -25.49 75.99 0 0 -38.12zm26.93 166.75l44.07 0 0 -64.32 20.72 0 40.49 64.32 48.84 0 -54.79 -85.51 52.4 -81.24 -48.84 0 -37.87 63.13 -20.96 0 0 -63.13 -44.07 0 0 166.75zm318.96 -166.75l-120.3 0c-3.81,50.5 -3.34,125.31 -30.24,128.17 -4.53,0.48 -8.34,0 -11.44,-0.95l0 38.35c7.39,2.38 14.29,3.34 20.49,3.34 47.87,-0.24 56.22,-61.22 61.45,-129.58l35.97 0 0 127.44 44.07 0 0 -166.75zm15.97 166.75l45.26 0 9.52 -26.2 69.08 0 9.54 26.2 45.26 0 -65.52 -166.75 -47.64 0 -65.5 166.75zm67.89 -61.94l17.16 -48.12c1.42,-4.06 2.85,-8.1 4.29,-16.92 1.42,8.81 2.85,12.86 4.28,16.92l17.15 48.12 -42.88 0zm311.59 -104.82l-41.69 0 -50.74 78.14 -50.74 -78.14 -41.69 0 0 166.75 44.07 0 0 -88.85 35.72 55.03 25.25 0 35.74 -54.8 0 88.62 44.07 0 0 -166.75zm15.97 166.75l45.26 0 9.52 -26.2 69.08 0 9.54 26.2 45.26 0 -65.52 -166.75 -47.64 0 -65.5 166.75zm67.89 -61.94l17.16 -48.12c1.42,-4.06 2.85,-8.1 4.28,-16.92 1.42,8.81 2.86,12.86 4.29,16.92l17.15 48.12 -42.88 0zm263.48 -12.15l-90.52 0 0 33.35 90.52 0 0 -33.35zm77.65 74.09l44.07 0 0 -64.32 20.73 0 40.49 64.32 48.84 0 -54.78 -85.51 52.4 -81.24 -48.84 0 -37.87 63.13 -20.96 0 0 -63.13 -44.07 0 0 166.75zm234.17 -166.75l-65.99 0 0 166.75 44.07 0 0 -52.4 21.91 0c41.22,-0.24 72.66,-13.34 72.66,-57.18 0,-43.83 -31.44,-57.17 -72.66,-57.17zm27.39 57.17c0,15.02 -11.91,19.06 -25.25,19.06l-24.06 0 0 -38.11 24.06 0c13.34,0 25.25,4.04 25.25,19.05zm186.28 -57.17l-120.06 0 0 166.75 121.49 0 0 -38.11 -77.42 0 0 -27.17 68.83 0 0 -37.87 -68.83 0 0 -25.49 75.99 0 0 -38.12zm11.44 166.75l45.26 0 9.52 -26.2 69.08 0 9.54 26.2 45.26 0 -65.52 -166.75 -47.64 0 -65.5 166.75zm67.89 -61.94l17.16 -48.12c1.42,-4.06 2.85,-8.1 4.28,-16.92 1.42,8.81 2.86,12.86 4.29,16.92l17.15 48.12 -42.88 0zm232.98 -104.82l-138.17 0 0 39.32 47.16 0 0 127.44 44.07 0 0 -127.44 46.94 0 0 -39.32zm124.83 166.75l44.07 0 0 -166.75 -41.7 0 -65.26 95.76c0.71,-7.87 0.95,-18.34 0.95,-27.64l0 -68.13 -44.07 0 0 166.75 41.68 0 65.28 -95.52c-0.72,7.85 -0.95,18.34 -0.95,27.4l0 68.12zm150.77 -166.75l-75.27 0 0 166.75 72.41 0c31.68,0 67.9,-9.3 67.9,-47.16 0,-23.1 -13.58,-35.98 -31.45,-41.22 15.96,-5.72 24.78,-17.87 24.78,-36.21 0,-28.83 -21.93,-42.17 -58.37,-42.17zm14.31 50.03c0,9.52 -6.67,15.49 -18.35,15.49l-27.15 -0.24 0 -30.73 27.15 0c11.68,0 18.35,5.95 18.35,15.49zm6.43 64.79c0,13.1 -8.81,17.39 -22.15,17.39l-30.02 0 0 -34.77 30.02 0c13.34,0 22.15,4.28 22.15,17.39z"/>
  </g>
 </g>
</svg>
