<?xml version="1.0" encoding="UTF-8"?>
<!DOCTYPE svg PUBLIC "-//W3C//DTD SVG 1.1//EN" "http://www.w3.org/Graphics/SVG/1.1/DTD/svg11.dtd">
<!-- Creator: CorelDRAW -->
<svg xmlns="http://www.w3.org/2000/svg" xml:space="preserve" width="86.0284mm" height="64.5284mm" version="1.1" style="shape-rendering:geometricPrecision; text-rendering:geometricPrecision; image-rendering:optimizeQuality; fill-rule:evenodd; clip-rule:evenodd"
viewBox="0 0 732.1 549.13"
 xmlns:xlink="http://www.w3.org/1999/xlink"
 xmlns:xodm="http://www.corel.com/coreldraw/odm/2003">
 <defs>
  <style type="text/css">
   <![CDATA[
    .fil1 {fill:#FEFEFE}
    .fil0 {fill:#881DF2}
    .fil2 {fill:#FEFEFE;fill-rule:nonzero}
   ]]>
  </style>
 </defs>
 <g id="Слой_x0020_1">
  <metadata id="CorelCorpID_0Corel-Layer"/>
  <g id="_2661891107088">
   <polygon class="fil0" points="305.8,341.41 366.05,281.16 426.3,341.41 528.11,341.41 416.96,230.26 455.72,191.49 630.28,366.05 732.09,366.05 455.72,89.67 404.81,140.58 366.05,179.35 327.28,140.58 276.37,89.67 0,366.05 101.82,366.05 276.37,191.49 315.14,230.26 203.98,341.41 "/>
   <polygon class="fil1" points="315.2,50.84 366.05,101.69 416.89,50.84 366.05,0 "/>
   <path class="fil2" d="M156.46 404.97l-35.28 0 -42.95 66.13 -42.95 -66.13 -35.28 0 0 141.14 37.3 0 0 -75.21 30.24 46.57 21.37 0 30.24 -46.37 0 75 37.3 0 0 -141.14zm152.23 0l-37.3 0 0 85.29c0,18.95 -10.28,25.61 -26.21,25.61 -15.93,0 -26.21,-6.65 -26.21,-25.61l0 -85.29 -37.3 0 0 87.3c0,42.54 32.26,56.86 63.51,56.86 31.25,0 63.51,-14.32 63.51,-56.86l0 -87.3zm25.2 141.14l37.3 0 0 -45.97 16.13 0 33.67 45.97 42.14 0 -38.91 -51.21c15.52,-6.25 27.02,-18.95 27.02,-42.34 0,-37.3 -29.24,-47.58 -57.87,-47.58l-59.48 0 0 141.14zm37.3 -76.21l0 -32.66 23.79 0c10.69,0 17.94,5.44 17.94,16.33 0,10.89 -7.26,16.33 -17.94,16.33l-23.79 0zm92.95 76.21l38.31 0 8.06 -22.18 58.47 0 8.06 22.18 38.31 0 -55.45 -141.14 -40.33 0 -55.45 141.14zm57.46 -52.42l14.52 -40.73c1.21,-3.43 2.42,-6.85 3.63,-14.32 1.21,7.46 2.42,10.89 3.63,14.32l14.52 40.73 -36.29 0zm98.8 -50.2c0,50.41 73.39,43.55 73.39,63.91 0,7.06 -6.25,9.48 -20.97,9.48 -16.13,0 -34.68,-4.44 -51.41,-15.93l0 35.28c14.92,8.27 33.87,12.9 54.24,12.9 30.85,0 56.45,-9.68 56.45,-43.15 0,-50 -73.39,-44.36 -73.39,-62.7 0,-5.24 4.23,-8.87 17.94,-9.07 16.33,-0.2 32.26,4.23 44.36,13.31l0 -34.28c-12.3,-7.06 -29.84,-11.29 -47.38,-11.29 -29.03,0 -53.23,13.31 -53.23,41.53z"/>
  </g>
 </g>
</svg>
