<?xml version="1.0" encoding="UTF-8"?>
<!DOCTYPE svg PUBLIC "-//W3C//DTD SVG 1.1//EN" "http://www.w3.org/Graphics/SVG/1.1/DTD/svg11.dtd">
<!-- Creator: CorelDRAW -->
<svg xmlns="http://www.w3.org/2000/svg" xml:space="preserve" width="86.0284mm" height="64.5284mm" version="1.1" style="shape-rendering:geometricPrecision; text-rendering:geometricPrecision; image-rendering:optimizeQuality; fill-rule:evenodd; clip-rule:evenodd"
viewBox="0 0 931.56 698.75"
 xmlns:xlink="http://www.w3.org/1999/xlink"
 xmlns:xodm="http://www.corel.com/coreldraw/odm/2003">
 <defs>
  <style type="text/css">
   <![CDATA[
    .fil1 {fill:black}
    .fil0 {fill:#881DF2}
    .fil2 {fill:black;fill-rule:nonzero}
   ]]>
  </style>
 </defs>
 <g id="Слой_x0020_1">
  <metadata id="CorelCorpID_0Corel-Layer"/>
  <g id="_2662417179248">
   <polygon class="fil0" points="389.12,434.43 465.78,357.77 542.44,434.43 672,434.43 530.56,292.99 579.89,243.66 802,465.78 931.56,465.78 579.89,114.11 515.11,178.88 465.78,228.21 416.45,178.88 351.67,114.11 0,465.78 129.56,465.78 351.67,243.66 401,292.99 259.56,434.43 "/>
   <polygon class="fil1" points="401.08,64.7 465.78,129.39 530.48,64.7 465.78,0 "/>
   <path class="fil2" d="M199.09 515.31l-44.9 0 -54.65 84.15 -54.65 -84.15 -44.9 0 0 179.59 47.46 0 0 -95.7 38.48 59.26 27.19 0 38.48 -59.01 0 95.44 47.46 0 0 -179.59zm193.7 0l-47.46 0 0 108.52c0,24.12 -13.09,32.58 -33.35,32.58 -20.27,0 -33.35,-8.47 -33.35,-32.58l0 -108.52 -47.46 0 0 111.09c0,54.13 41.05,72.35 80.82,72.35 39.77,0 80.82,-18.22 80.82,-72.35l0 -111.09zm32.07 179.59l47.46 0 0 -58.5 20.52 0 42.85 58.5 53.62 0 -49.52 -65.17c19.75,-7.95 34.38,-24.12 34.38,-53.88 0,-47.46 -37.2,-60.55 -73.63,-60.55l-75.68 0 0 179.59zm47.46 -96.98l0 -41.56 30.27 0c13.6,0 22.83,6.93 22.83,20.78 0,13.85 -9.24,20.78 -22.83,20.78l-30.27 0zm118.27 96.98l48.75 0 10.26 -28.22 74.4 0 10.26 28.22 48.75 0 -70.55 -179.59 -51.31 0 -70.55 179.59zm73.12 -66.71l18.47 -51.82c1.54,-4.36 3.08,-8.72 4.62,-18.22 1.54,9.49 3.08,13.85 4.62,18.22l18.47 51.82 -46.18 0zm125.71 -63.88c0,64.14 93.39,55.42 93.39,81.33 0,8.98 -7.95,12.06 -26.68,12.06 -20.52,0 -44.13,-5.64 -65.42,-20.27l0 44.9c18.99,10.52 43.1,16.42 69.01,16.42 39.25,0 71.84,-12.32 71.84,-54.9 0,-63.63 -93.39,-56.44 -93.39,-79.79 0,-6.67 5.39,-11.29 22.83,-11.55 20.78,-0.26 41.05,5.39 56.44,16.93l0 -43.62c-15.65,-8.98 -37.97,-14.37 -60.29,-14.37 -36.94,0 -67.73,16.93 -67.73,52.85z"/>
  </g>
 </g>
</svg>
