<?xml version="1.0" encoding="UTF-8"?>
<!DOCTYPE svg PUBLIC "-//W3C//DTD SVG 1.1//EN" "http://www.w3.org/Graphics/SVG/1.1/DTD/svg11.dtd">
<!-- Creator: CorelDRAW -->
<svg xmlns="http://www.w3.org/2000/svg" xml:space="preserve" width="86.0285mm" height="84.2202mm" version="1.1" style="shape-rendering:geometricPrecision; text-rendering:geometricPrecision; image-rendering:optimizeQuality; fill-rule:evenodd; clip-rule:evenodd"
viewBox="0 0 1346.62 1318.31"
 xmlns:xlink="http://www.w3.org/1999/xlink"
 xmlns:xodm="http://www.corel.com/coreldraw/odm/2003">
 <defs>
  <style type="text/css">
   <![CDATA[
    .fil1 {fill:black}
    .fil0 {fill:#881DF2}
    .fil2 {fill:black;fill-rule:nonzero}
    .fil3 {fill:#881DF2;fill-rule:nonzero}
   ]]>
  </style>
 </defs>
 <g id="Слой_x0020_1">
  <metadata id="CorelCorpID_0Corel-Layer"/>
  <g id="_2662861881712">
   <polygon class="fil0" points="562.49,628 673.31,517.17 784.13,628 971.41,628 766.95,423.53 838.26,352.23 1159.34,673.31 1346.62,673.31 838.26,164.95 744.62,258.59 673.31,329.89 602.01,258.59 508.37,164.95 0,673.31 187.29,673.31 508.37,352.23 579.67,423.53 375.21,628 "/>
   <polygon class="fil1" points="579.79,93.52 673.31,187.04 766.83,93.52 673.31,0 "/>
   <path class="fil2" d="M287.79 744.91l-64.9 0 -79 121.64 -79 -121.64 -64.9 0 0 259.61 68.61 0 0 -138.33 55.63 85.67 39.31 0 55.63 -85.3 0 137.96 68.61 0 0 -259.61zm280 0l-68.61 0 0 156.88c0,34.86 -18.92,47.1 -48.21,47.1 -29.3,0 -48.21,-12.24 -48.21,-47.1l0 -156.88 -68.61 0 0 160.58c0,78.25 59.34,104.59 116.82,104.59 57.48,0 116.82,-26.33 116.82,-104.59l0 -160.58zm46.36 259.61l68.61 0 0 -84.56 29.67 0 61.93 84.56 77.51 0 -71.58 -94.2c28.56,-11.5 49.7,-34.86 49.7,-77.88 0,-68.61 -53.78,-87.52 -106.44,-87.52l-109.41 0 0 259.61zm68.61 -140.19l0 -60.08 43.76 0c19.66,0 33.01,10.01 33.01,30.04 0,20.03 -13.35,30.04 -33.01,30.04l-43.76 0zm170.97 140.19l70.46 0 14.83 -40.8 107.55 0 14.83 40.8 70.46 0 -101.99 -259.61 -74.17 0 -101.99 259.61zm105.7 -96.43l26.7 -74.91c2.23,-6.31 4.45,-12.61 6.68,-26.33 2.23,13.72 4.45,20.03 6.68,26.33l26.7 74.91 -66.76 0zm181.72 -92.34c0,92.72 135,80.11 135,117.56 0,12.98 -11.5,17.43 -38.57,17.43 -29.67,0 -63.79,-8.16 -94.57,-29.3l0 64.9c27.44,15.21 62.31,23.74 99.76,23.74 56.74,0 103.84,-17.8 103.84,-79.37 0,-91.97 -135,-81.59 -135,-115.34 0,-9.64 7.79,-16.32 33.01,-16.69 30.04,-0.37 59.34,7.79 81.59,24.48l0 -63.05c-22.62,-12.98 -54.89,-20.77 -87.15,-20.77 -53.41,0 -97.91,24.48 -97.91,76.4z"/>
   <path class="fil3" d="M255.58 1091.83l-37.89 0 0 83.94 36.46 0c15.95,0 34.18,-4.68 34.18,-23.74 0,-11.63 -6.84,-18.11 -15.83,-20.75 8.04,-2.88 12.47,-8.99 12.47,-18.23 0,-14.51 -11.03,-21.23 -29.38,-21.23zm7.19 25.18c0,4.8 -3.36,7.8 -9.23,7.8l-13.67 -0.12 0 -15.47 13.67 0c5.88,0 9.23,3 9.23,7.79zm3.24 32.62c0,6.59 -4.44,8.75 -11.15,8.75l-15.11 0 0 -17.51 15.11 0c6.72,0 11.15,2.16 11.15,8.75zm33.7 26.14l22.18 0 0 -27.34 9.59 0 20.03 27.34 25.06 0 -23.14 -30.46c9.23,-3.72 16.07,-11.27 16.07,-25.18 0,-22.19 -17.39,-28.3 -34.42,-28.3l-35.37 0 0 83.94zm22.18 -45.33l0 -19.43 14.15 0c6.36,0 10.67,3.24 10.67,9.71 0,6.48 -4.32,9.71 -10.67,9.71l-14.15 0zm55.28 45.33l22.78 0 4.8 -13.19 34.78 0 4.8 13.19 22.78 0 -32.98 -83.94 -23.98 0 -32.98 83.94zm34.18 -31.18l8.63 -24.22c0.72,-2.04 1.44,-4.08 2.16,-8.51 0.72,4.44 1.44,6.48 2.16,8.51l8.63 24.22 -21.58 0zm63.79 31.18l22.19 0 0 -34.3c0,-4.56 -0.12,-9.83 -0.48,-13.79l32.86 48.09 20.98 0 0 -83.94 -22.18 0 0 34.3c0,4.68 0.12,9.95 0.48,13.91l-32.86 -48.21 -20.98 0 0 83.94zm124.83 -83.94l-33.46 0 0 83.94 33.46 0c29.98,0 43.89,-17.51 43.89,-41.97 0,-24.46 -13.91,-41.97 -43.89,-41.97zm21.11 41.97c0,15.71 -7.8,22.78 -21.11,22.78l-11.27 0 0 -45.57 11.27 0c13.31,0 21.11,7.08 21.11,22.78zm56.6 -19.07c0,29.98 43.65,25.9 43.65,38.01 0,4.2 -3.72,5.64 -12.47,5.64 -9.59,0 -20.63,-2.64 -30.58,-9.47l0 20.99c8.87,4.92 20.15,7.67 32.26,7.67 18.35,0 33.58,-5.76 33.58,-25.66 0,-29.74 -43.65,-26.38 -43.65,-37.29 0,-3.12 2.52,-5.28 10.67,-5.4 9.71,-0.12 19.19,2.52 26.38,7.91l0 -20.39c-7.31,-4.2 -17.75,-6.72 -28.18,-6.72 -17.27,0 -31.66,7.91 -31.66,24.7zm139.11 -22.91l-69.55 0 0 19.79 23.74 0 0 64.16 22.19 0 0 -64.16 23.62 0 0 -19.79zm84.18 0l-22.19 0 0 50.73c0,11.27 -6.12,15.23 -15.59,15.23 -9.47,0 -15.59,-3.96 -15.59,-15.23l0 -50.73 -22.18 0 0 51.92c0,25.3 19.19,33.82 37.77,33.82 18.59,0 37.77,-8.51 37.77,-33.82l0 -51.92zm48.45 0l-33.46 0 0 83.94 33.46 0c29.98,0 43.89,-17.51 43.89,-41.97 0,-24.46 -13.91,-41.97 -43.89,-41.97zm21.11 41.97c0,15.71 -7.79,22.78 -21.11,22.78l-11.27 0 0 -45.57 11.27 0c13.31,0 21.11,7.08 21.11,22.78zm56.84 -41.97l-22.19 0 0 83.94 22.19 0 0 -83.94zm11.63 41.97c0,23.38 14.99,43.77 44.97,43.77 29.98,0 44.97,-20.39 44.97,-43.77 0,-23.38 -14.99,-43.77 -44.97,-43.77 -29.98,0 -44.97,20.39 -44.97,43.77zm67.15 0c0,13.43 -7.67,23.38 -22.18,23.38 -14.51,0 -22.19,-9.95 -22.19,-23.38 0,-13.43 7.67,-23.38 22.19,-23.38 14.51,0 22.18,9.95 22.18,23.38z"/>
   <path class="fil2" d="M28.71 1265.25l-12.26 0 0 -7.38 30.75 0 0 -14.67 -47.19 0 0 62.22 28.71 0c12.62,0 23.73,-4.53 23.73,-20.09 0,-15.55 -11.11,-20.08 -23.73,-20.08zm-0.18 25.95l-12.08 0 0 -11.74 12.08 0c3.82,0 7.02,1.06 7.02,5.87 0,4.8 -3.2,5.87 -7.02,5.87zm56.53 -48l-24.62 0 0 62.22 16.44 0 0 -19.55 8.18 0c15.38,-0.09 27.11,-4.98 27.11,-21.34 0,-16.35 -11.73,-21.33 -27.11,-21.33zm10.22 21.33c0,5.6 -4.44,7.11 -9.42,7.11l-8.98 0 0 -14.22 8.98 0c4.98,0 9.42,1.51 9.42,7.11zm69.5 -21.33l-44.79 0 0 62.22 45.33 0 0 -14.22 -28.89 0 0 -10.14 25.68 0 0 -14.13 -25.68 0 0 -9.51 28.35 0 0 -14.22zm66.04 0l-16.44 0 0 23.82 -23.11 0 0 -23.82 -16.44 0 0 62.22 16.44 0 0 -23.73 23.11 0 0 23.73 16.44 0 0 -62.22zm7.73 75.11l14.22 0 0 -12.89 40.89 0 0 12.89 14.22 0 0 -27.11 -8 0 0 -48 -44.44 0c0,16.44 -1.77,33.77 -9.78,48l-7.11 0 0 27.11zm32 -60.44l12.88 0 0 33.33 -20.44 0c4.89,-9.07 6.67,-21.16 7.56,-33.33zm96.7 19.91l-33.77 0 0 12.44 33.77 0 0 -12.44zm53.59 -34.57l-24.62 0 0 62.22 16.44 0 0 -19.55 8.18 0c15.38,-0.09 27.11,-4.98 27.11,-21.34 0,-16.35 -11.73,-21.33 -27.11,-21.33zm10.22 21.33c0,5.6 -4.44,7.11 -9.42,7.11l-8.98 0 0 -14.22 8.98 0c4.98,0 9.42,1.51 9.42,7.11zm69.5 -21.33l-44.79 0 0 62.22 45.33 0 0 -14.22 -28.89 0 0 -10.14 25.68 0 0 -14.13 -25.68 0 0 -9.51 28.35 0 0 -14.22zm10.05 62.22l16.44 0 0 -24 7.73 0 15.11 24 18.22 0 -20.44 -31.91 19.55 -30.31 -18.22 0 -14.13 23.55 -7.82 0 0 -23.55 -16.44 0 0 62.22zm119 -62.22l-44.88 0c-1.42,18.84 -1.24,46.75 -11.28,47.82 -1.69,0.18 -3.11,0 -4.27,-0.36l0 14.31c2.76,0.89 5.33,1.24 7.65,1.24 17.86,-0.09 20.98,-22.84 22.93,-48.35l13.42 0 0 47.55 16.44 0 0 -62.22zm5.96 62.22l16.89 0 3.55 -9.78 25.77 0 3.56 9.78 16.89 0 -24.44 -62.22 -17.78 0 -24.44 62.22zm25.33 -23.11l6.4 -17.95c0.53,-1.51 1.06,-3.02 1.6,-6.31 0.53,3.29 1.06,4.8 1.6,6.31l6.4 17.95 -16 0zm116.26 -39.11l-15.55 0 -18.93 29.15 -18.93 -29.15 -15.55 0 0 62.22 16.44 0 0 -33.15 13.33 20.53 9.42 0 13.33 -20.44 0 33.06 16.44 0 0 -62.22zm5.96 62.22l16.89 0 3.55 -9.78 25.77 0 3.56 9.78 16.89 0 -24.44 -62.22 -17.78 0 -24.44 62.22zm25.33 -23.11l6.4 -17.95c0.53,-1.51 1.06,-3.02 1.6,-6.31 0.53,3.29 1.07,4.8 1.6,6.31l6.4 17.95 -16 0zm98.31 -4.53l-33.77 0 0 12.44 33.77 0 0 -12.44zm28.97 27.64l16.44 0 0 -24 7.73 0 15.11 24 18.22 0 -20.44 -31.91 19.55 -30.31 -18.22 0 -14.13 23.55 -7.82 0 0 -23.55 -16.44 0 0 62.22zm87.37 -62.22l-24.62 0 0 62.22 16.44 0 0 -19.55 8.18 0c15.38,-0.09 27.11,-4.98 27.11,-21.34 0,-16.35 -11.73,-21.33 -27.11,-21.33zm10.22 21.33c0,5.6 -4.44,7.11 -9.42,7.11l-8.98 0 0 -14.22 8.98 0c4.98,0 9.42,1.51 9.42,7.11zm69.5 -21.33l-44.79 0 0 62.22 45.33 0 0 -14.22 -28.89 0 0 -10.14 25.68 0 0 -14.13 -25.68 0 0 -9.51 28.35 0 0 -14.22zm4.27 62.22l16.89 0 3.55 -9.78 25.77 0 3.56 9.78 16.89 0 -24.44 -62.22 -17.78 0 -24.44 62.22zm25.33 -23.11l6.4 -17.95c0.53,-1.51 1.06,-3.02 1.6,-6.31 0.53,3.29 1.07,4.8 1.6,6.31l6.4 17.95 -16 0zm86.93 -39.11l-51.55 0 0 14.67 17.6 0 0 47.55 16.44 0 0 -47.55 17.51 0 0 -14.67zm46.57 62.22l16.44 0 0 -62.22 -15.56 0 -24.35 35.73c0.26,-2.93 0.36,-6.84 0.36,-10.31l0 -25.42 -16.44 0 0 62.22 15.55 0 24.35 -35.64c-0.27,2.93 -0.36,6.84 -0.36,10.22l0 25.42zm56.25 -62.22l-28.08 0 0 62.22 27.02 0c11.82,0 25.33,-3.47 25.33,-17.6 0,-8.62 -5.07,-13.42 -11.73,-15.38 5.96,-2.13 9.24,-6.67 9.24,-13.51 0,-10.76 -8.18,-15.73 -21.78,-15.73zm5.34 18.67c0,3.55 -2.49,5.78 -6.85,5.78l-10.13 -0.09 0 -11.47 10.13 0c4.36,0 6.85,2.22 6.85,5.78zm2.4 24.17c0,4.89 -3.29,6.49 -8.26,6.49l-11.2 0 0 -12.97 11.2 0c4.98,0 8.26,1.6 8.26,6.49z"/>
  </g>
 </g>
</svg>
