<?xml version="1.0" encoding="UTF-8"?>
<!DOCTYPE svg PUBLIC "-//W3C//DTD SVG 1.1//EN" "http://www.w3.org/Graphics/SVG/1.1/DTD/svg11.dtd">
<!-- Creator: CorelDRAW -->
<svg xmlns="http://www.w3.org/2000/svg" xml:space="preserve" width="147.753mm" height="147.753mm" version="1.1" style="shape-rendering:geometricPrecision; text-rendering:geometricPrecision; image-rendering:optimizeQuality; fill-rule:evenodd; clip-rule:evenodd"
viewBox="0 0 3571.13 3571.13"
 xmlns:xlink="http://www.w3.org/1999/xlink"
 xmlns:xodm="http://www.corel.com/coreldraw/odm/2003">
 <defs>
  <style type="text/css">
   <![CDATA[
    .fil1 {fill:#FEFEFE}
    .fil2 {fill:black}
    .fil0 {fill:#881DF2}
    .fil3 {fill:black;fill-rule:nonzero}
    .fil4 {fill:#881DF2;fill-rule:nonzero}
   ]]>
  </style>
 </defs>
 <g id="Слой_x0020_1">
  <metadata id="CorelCorpID_0Corel-Layer"/>
  <g id="_2663282701008">
   <circle class="fil0" cx="1785.56" cy="1785.56" r="1785.56"/>
   <circle class="fil1" cx="1785.56" cy="1785.56" r="1696.67"/>
   <polygon class="fil0" points="1614.45,1544.62 1785.56,1373.5 1956.68,1544.62 2245.86,1544.62 1930.15,1228.92 2040.25,1118.81 2536.02,1614.58 2825.2,1614.58 2040.25,829.64 1895.66,974.23 1785.56,1084.33 1675.46,974.23 1530.88,829.64 745.93,1614.58 1035.11,1614.58 1530.88,1118.81 1640.98,1228.91 1325.27,1544.62 "/>
   <polygon class="fil2" points="1641.16,719.36 1785.56,863.76 1929.97,719.36 1785.56,574.95 "/>
   <path class="fil3" d="M1190.3 1725.14l-100.21 0 -121.97 187.83 -121.97 -187.83 -100.21 0 0 400.85 105.94 0 0 -213.6 85.9 132.28 60.7 0 85.9 -131.71 0 213.02 105.94 0 0 -400.85zm432.35 0l-105.94 0 0 242.23c0,53.83 -29.21,72.73 -74.44,72.73 -45.24,0 -74.44,-18.9 -74.44,-72.73l0 -242.23 -105.94 0 0 247.95c0,120.83 91.62,161.49 180.38,161.49 88.76,0 180.38,-40.66 180.38,-161.49l0 -247.95zm71.58 400.85l105.94 0 0 -130.56 45.81 0 95.63 130.56 119.68 0 -110.52 -145.45c44.09,-17.75 76.73,-53.83 76.73,-120.26 0,-105.94 -83.03,-135.14 -164.35,-135.14l-168.93 0 0 400.85zm105.94 -216.46l0 -92.77 67.57 0c30.35,0 50.97,15.46 50.97,46.38 0,30.92 -20.61,46.38 -50.97,46.38l-67.57 0zm263.99 216.46l108.8 0 22.91 -62.99 166.07 0 22.91 62.99 108.8 0 -157.48 -400.85 -114.53 0 -157.47 400.85zm163.2 -148.89l41.23 -115.67c3.44,-9.74 6.87,-19.47 10.31,-40.66 3.44,21.19 6.87,30.92 10.31,40.66l41.23 115.67 -103.08 0zm280.59 -142.59c0,143.16 208.44,123.69 208.44,181.53 0,20.04 -17.75,26.91 -59.56,26.91 -45.81,0 -98.49,-12.6 -146.02,-45.24l0 100.21c42.38,23.48 96.2,36.65 154.04,36.65 87.61,0 160.34,-27.49 160.34,-122.55 0,-142.02 -208.44,-125.98 -208.44,-178.09 0,-14.89 12.03,-25.2 50.97,-25.77 46.38,-0.57 91.62,12.02 125.98,37.79l0 -97.35c-34.93,-20.04 -84.75,-32.07 -134.57,-32.07 -82.46,0 -151.18,37.79 -151.18,117.96z"/>
   <path class="fil4" d="M1140.56 2260.81l-58.51 0 0 129.61 56.29 0c24.62,0 52.77,-7.22 52.77,-36.66 0,-17.96 -10.55,-27.96 -24.44,-32.03 12.41,-4.44 19.26,-13.89 19.26,-28.15 0,-22.41 -17.03,-32.77 -45.36,-32.77zm11.11 38.88c0,7.41 -5.18,12.04 -14.26,12.04l-21.11 -0.19 0 -23.88 21.11 0c9.07,0 14.26,4.63 14.26,12.03zm5 50.36c0,10.18 -6.85,13.52 -17.22,13.52l-23.33 0 0 -27.03 23.33 0c10.37,0 17.22,3.33 17.22,13.52zm52.03 40.37l34.25 0 0 -42.22 14.81 0 30.92 42.22 38.7 0 -35.74 -47.03c14.26,-5.74 24.81,-17.4 24.81,-38.88 0,-34.26 -26.85,-43.7 -53.14,-43.7l-54.62 0 0 129.61zm34.25 -69.99l0 -29.99 21.85 0c9.82,0 16.48,5 16.48,15 0,10 -6.66,15 -16.48,15l-21.85 0zm85.36 69.99l35.18 0 7.41 -20.37 53.7 0 7.41 20.37 35.18 0 -50.92 -129.61 -37.03 0 -50.92 129.61zm52.77 -48.14l13.33 -37.4c1.11,-3.15 2.22,-6.29 3.33,-13.15 1.11,6.85 2.22,10 3.33,13.15l13.33 37.4 -33.33 0zm98.5 48.14l34.26 0 0 -52.96c0,-7.04 -0.19,-15.18 -0.74,-21.29l50.73 74.25 32.4 0 0 -129.61 -34.25 0 0 52.96c0,7.22 0.18,15.37 0.74,21.48l-50.73 -74.44 -32.4 0 0 129.61zm192.75 -129.61l-51.66 0 0 129.61 51.66 0c46.29,0 67.77,-27.03 67.77,-64.81 0,-37.77 -21.48,-64.81 -67.77,-64.81zm32.59 64.81c0,24.26 -12.04,35.18 -32.59,35.18l-17.4 0 0 -70.36 17.4 0c20.55,0 32.59,10.92 32.59,35.18zm87.39 -29.44c0,46.29 67.4,39.99 67.4,58.7 0,6.48 -5.74,8.7 -19.26,8.7 -14.81,0 -31.85,-4.07 -47.22,-14.63l0 32.4c13.7,7.59 31.11,11.85 49.81,11.85 28.33,0 51.85,-8.89 51.85,-39.63 0,-45.92 -67.4,-40.74 -67.4,-57.58 0,-4.81 3.89,-8.15 16.48,-8.33 15,-0.19 29.63,3.89 40.74,12.22l0 -31.48c-11.29,-6.48 -27.4,-10.37 -43.51,-10.37 -26.66,0 -48.88,12.22 -48.88,38.14zm214.79 -35.37l-107.39 0 0 30.55 36.66 0 0 99.06 34.26 0 0 -99.06 36.48 0 0 -30.55zm129.98 0l-34.26 0 0 78.32c0,17.4 -9.44,23.51 -24.07,23.51 -14.63,0 -24.07,-6.11 -24.07,-23.51l0 -78.32 -34.25 0 0 80.18c0,39.07 29.62,52.22 58.32,52.22 28.7,0 58.33,-13.15 58.33,-52.22l0 -80.18zm74.8 0l-51.66 0 0 129.61 51.66 0c46.29,0 67.77,-27.03 67.77,-64.81 0,-37.77 -21.48,-64.81 -67.77,-64.81zm32.59 64.81c0,24.26 -12.03,35.18 -32.59,35.18l-17.4 0 0 -70.36 17.4 0c20.55,0 32.59,10.92 32.59,35.18zm87.77 -64.81l-34.26 0 0 129.61 34.26 0 0 -129.61zm17.96 64.81c0,36.11 23.14,67.59 69.44,67.59 46.29,0 69.43,-31.48 69.43,-67.59 0,-36.1 -23.14,-67.58 -69.43,-67.58 -46.29,0 -69.44,31.48 -69.44,67.58zm103.69 0c0,20.74 -11.85,36.11 -34.25,36.11 -22.41,0 -34.26,-15.37 -34.26,-36.11 0,-20.74 11.85,-36.1 34.26,-36.1 22.4,0 34.25,15.37 34.25,36.1z"/>
   <path class="fil3" d="M790.25 2528.59l-18.94 0 0 -11.39 47.48 0 0 -22.65 -72.87 0 0 96.07 44.32 0c19.49,0 36.64,-7 36.64,-31.01 0,-24.01 -17.15,-31.01 -36.64,-31.01zm-0.28 40.07l-18.66 0 0 -18.12 18.66 0c5.9,0 10.84,1.64 10.84,9.06 0,7.41 -4.94,9.06 -10.84,9.06zm87.28 -74.11l-38.01 0 0 96.07 25.39 0 0 -30.19 12.62 0c23.74,-0.14 41.86,-7.69 41.86,-32.94 0,-25.25 -18.11,-32.94 -41.86,-32.94zm15.78 32.94c0,8.65 -6.86,10.98 -14.55,10.98l-13.86 0 0 -21.95 13.86 0c7.69,0 14.55,2.33 14.55,10.97zm107.32 -32.94l-69.16 0 0 96.07 69.99 0 0 -21.95 -44.6 0 0 -15.65 39.66 0 0 -21.82 -39.66 0 0 -14.69 43.78 0 0 -21.96zm101.97 0l-25.39 0 0 36.78 -35.68 0 0 -36.78 -25.39 0 0 96.07 25.39 0 0 -36.64 35.68 0 0 36.64 25.39 0 0 -96.07zm11.93 115.97l21.96 0 0 -19.9 63.13 0 0 19.9 21.96 0 0 -41.85 -12.36 0 0 -74.11 -68.62 0c0,25.39 -2.74,52.15 -15.09,74.11l-10.98 0 0 41.85zm49.41 -93.32l19.89 0 0 51.46 -31.56 0c7.55,-14 10.29,-32.67 11.67,-51.46zm149.31 30.74l-52.15 0 0 19.21 52.15 0 0 -19.21zm82.75 -53.39l-38.01 0 0 96.07 25.39 0 0 -30.19 12.62 0c23.74,-0.14 41.86,-7.69 41.86,-32.94 0,-25.25 -18.11,-32.94 -41.86,-32.94zm15.78 32.94c0,8.65 -6.86,10.98 -14.55,10.98l-13.86 0 0 -21.95 13.86 0c7.69,0 14.55,2.33 14.55,10.97zm107.32 -32.94l-69.16 0 0 96.07 69.99 0 0 -21.95 -44.6 0 0 -15.65 39.66 0 0 -21.82 -39.66 0 0 -14.69 43.78 0 0 -21.96zm15.51 96.07l25.39 0 0 -37.06 11.94 0 23.33 37.06 28.14 0 -31.56 -49.26 30.19 -46.8 -28.14 0 -21.82 36.37 -12.08 0 0 -36.37 -25.39 0 0 96.07zm183.75 -96.07l-69.3 0c-2.19,29.09 -1.92,72.19 -17.42,73.84 -2.61,0.28 -4.81,0 -6.59,-0.55l0 22.09c4.26,1.37 8.23,1.92 11.81,1.92 27.58,-0.14 32.39,-35.27 35.4,-74.65l20.72 0 0 73.42 25.39 0 0 -96.07zm9.2 96.07l26.07 0 5.49 -15.09 39.8 0 5.49 15.09 26.07 0 -37.74 -96.07 -27.45 0 -37.74 96.07zm39.11 -35.68l9.89 -27.72c0.82,-2.34 1.64,-4.67 2.47,-9.75 0.82,5.08 1.64,7.41 2.47,9.75l9.88 27.72 -24.7 0zm179.51 -60.39l-24.01 0 -29.23 45.01 -29.23 -45.01 -24.01 0 0 96.07 25.39 0 0 -51.19 20.58 31.7 14.55 0 20.59 -31.57 0 51.05 25.39 0 0 -96.07zm9.2 96.07l26.07 0 5.49 -15.09 39.8 0 5.49 15.09 26.07 0 -37.74 -96.07 -27.45 0 -37.74 96.07zm39.11 -35.68l9.89 -27.72c0.82,-2.34 1.64,-4.67 2.47,-9.75 0.82,5.08 1.65,7.41 2.47,9.75l9.88 27.72 -24.7 0zm151.79 -7l-52.15 0 0 19.21 52.15 0 0 -19.21zm44.73 42.68l25.39 0 0 -37.06 11.94 0 23.33 37.06 28.14 0 -31.56 -49.26 30.19 -46.8 -28.14 0 -21.82 36.37 -12.08 0 0 -36.37 -25.39 0 0 96.07zm134.91 -96.07l-38.01 0 0 96.07 25.39 0 0 -30.19 12.62 0c23.74,-0.14 41.86,-7.69 41.86,-32.94 0,-25.25 -18.11,-32.94 -41.86,-32.94zm15.78 32.94c0,8.65 -6.86,10.98 -14.55,10.98l-13.86 0 0 -21.95 13.86 0c7.69,0 14.55,2.33 14.55,10.97zm107.32 -32.94l-69.17 0 0 96.07 69.99 0 0 -21.95 -44.6 0 0 -15.65 39.66 0 0 -21.82 -39.66 0 0 -14.69 43.78 0 0 -21.96zm6.59 96.07l26.07 0 5.49 -15.09 39.8 0 5.5 15.09 26.07 0 -37.74 -96.07 -27.45 0 -37.74 96.07zm39.11 -35.68l9.89 -27.72c0.82,-2.34 1.64,-4.67 2.47,-9.75 0.82,5.08 1.65,7.41 2.47,9.75l9.88 27.72 -24.7 0zm134.22 -60.39l-79.6 0 0 22.65 27.17 0 0 73.42 25.39 0 0 -73.42 27.04 0 0 -22.65zm71.91 96.07l25.39 0 0 -96.07 -24.02 0 -37.6 55.17c0.41,-4.53 0.55,-10.56 0.55,-15.92l0 -39.25 -25.39 0 0 96.07 24.01 0 37.61 -55.03c-0.42,4.52 -0.55,10.56 -0.55,15.78l0 39.25zm86.86 -96.07l-43.36 0 0 96.07 41.72 0c18.25,0 39.12,-5.36 39.12,-27.17 0,-13.31 -7.82,-20.73 -18.12,-23.74 9.2,-3.29 14.27,-10.29 14.27,-20.86 0,-16.61 -12.63,-24.29 -33.63,-24.29zm8.24 28.82c0,5.49 -3.84,8.92 -10.57,8.92l-15.64 -0.14 0 -17.7 15.64 0c6.73,0 10.57,3.43 10.57,8.92zm3.7 37.33c0,7.55 -5.08,10.02 -12.76,10.02l-17.29 0 0 -20.03 17.29 0c7.69,0 12.76,2.47 12.76,10.02z"/>
  </g>
 </g>
</svg>
